<?xml version='1.0' encoding='UTF-8'?>
<svg xmlns:inkscape="http://www.inkscape.org/namespaces/inkscape" xmlns:sodipodi="http://sodipodi.sourceforge.net/DTD/sodipodi-0.dtd" xmlns:xlink="http://www.w3.org/1999/xlink" xmlns="http://www.w3.org/2000/svg" xmlns:svg="http://www.w3.org/2000/svg" baseProfile="tiny-ps" width="420" height="420" version="1.2" id="svg1" viewBox="0 0 420 420">
  <title id="title1">HomeFortress</title>
  <defs id="defs1">
    <linearGradient id="swatch2">
      <stop style="stop-color:#ffffff;stop-opacity:1;" offset="0" id="stop2"/>
    </linearGradient>
  </defs>
  <desc id="desc1"/>
  <g id="g2" style="display:inline">
    <path style="display:inline;opacity:1;fill:#f9f9f9;stroke-opacity:0" id="path8" d="M 211.78301,0.519188 A 208.97685,208.97685 0 0 1 418.97161,210.96888 208.97685,208.97685 0 0 1 208.82214,418.46197 208.97685,208.97685 0 0 1 1.0249806,208.61315 208.97685,208.97685 0 0 1 210.5727,0.51236618"/>
    <path style="display:inline;opacity:1;fill:#1e63af;fill-opacity:1;stroke-opacity:0" d="m 207.48677,400.91871 c 3.15876,1.48909 4.29171,1.71424 4.29171,1.71424 l -9.1e-4,-96.85952 c 0,0 -0.0285,-0.007 -0.12133,-0.043 -57.46583,-22.31985 -111.21062,-61.23134 -144.96143,-105.2777 -0.05465,-0.0713 -0.160481,-0.20897 -0.160481,-0.20897 0,0 0.846193,6.35072 0.858459,6.43527 12.11776,83.52281 36.648442,114.77393 115.195802,178.54371 8.72971,7.08733 17.03384,11.98855 24.89818,15.69593 z" id="path10"/>
    <path style="opacity:1;fill:#1b439c;fill-opacity:1;stroke-opacity:0" d="m 211.77352,305.77343 c 0,0 0.0199,0.005 0.11352,0.039 40.76043,14.71487 58.54692,15.92949 77.48474,17.54426 8.09626,0.69035 17.30652,0.22003 17.30652,0.22003 0,0 -2.52338,2.89356 -2.58074,2.95688 -11.62788,12.83573 -33.13543,37.24586 -63.13506,58.68911 -9.14785,6.53873 -17.03384,11.98855 -24.89818,15.69593 v 7e-5 c -3.15876,1.48909 -4.29171,1.71424 -4.29171,1.71424" id="path2"/>
    <path style="display:inline;opacity:1;fill:#1e63af;fill-opacity:1;stroke-opacity:0" d="m 211.51982,44.254778 c 0.005,-0.185127 0.18891,-0.444555 0.18891,-0.444555 0,0 0.5592,0.0896 0.79825,0.246922 19.29127,12.696045 32.28825,22.659981 59.6636,28.947264 0.34774,0.07986 0.87972,-0.05216 1.46044,0.359863 37.58654,26.667238 63.32574,49.105428 86.54046,82.851078 0.0682,0.0991 0.16573,0.3204 0.16573,0.3204 0,0 -0.25816,3.28136 -0.4119,4.91985 -6.77238,72.17741 -12.18528,96.74711 -33.0737,135.88815 -0.13205,0.24745 -0.22656,0.4375 -0.22656,0.4375 0,0 -0.91707,0.0342 -1.375,0.0625 -30.80755,1.90498 -55.95861,1.97161 -113.30469,-22.94531 -0.4478,-0.19458 -1.23828,-0.77735 -1.23828,-0.77735 0,0 -1.03961,-2.7754 -1.08203,-4.21484 -2.25428,-76.49225 -0.0547,-151.54744 1.86353,-224.463972 z" id="path3"/>
    <path style="opacity:1;fill:#1b439c;fill-opacity:1;stroke-opacity:0" d="m 360.00574,132.89188 c 0.28952,0.37198 0.90756,0.99216 0.90756,0.99216 0,0 0.11848,-0.89929 0.1531,-1.34571 0.96916,-12.51677 0.0122,-41.509391 -1.07421,-54.31958 -0.022,-0.259692 -0.0937,-0.640626 -0.0937,-0.640626 0,0 -0.13987,-0.448365 -0.21875,-0.656249 -0.8574,-2.259472 -2.95569,-3.572347 -5.03906,-3.789062 -0.20931,-0.02177 -0.64063,-0.01563 -0.64063,-0.01563 0,0 -0.54449,0.004 -0.696,0.0356 -9.79077,2.043763 -23.45195,4.338028 -51.50199,3.833466 -0.27548,-0.005 -1.09932,-0.110485 -1.09932,-0.110485 0,0 0.53047,0.710274 0.88387,0.98332 28.73911,22.204406 51.05879,45.575826 58.41913,55.032796 z" id="path4"/>
    <path style="display:inline;opacity:1;fill:#1b4399;fill-opacity:1;stroke-opacity:0" d="m 63.050024,132.8087 c -0.28952,0.37198 -0.90756,0.99216 -0.90756,0.99216 0,0 -0.11848,-0.89929 -0.1531,-1.34571 -0.96916,-12.51677 -0.0122,-41.509396 1.07421,-54.319585 0.022,-0.259692 0.0937,-0.640626 0.0937,-0.640626 0,0 0.13987,-0.448365 0.21875,-0.656249 0.8574,-2.259472 2.95569,-3.572347 5.03906,-3.789062 0.20931,-0.02177 0.64063,-0.01563 0.64063,-0.01563 0,0 0.54449,0.004 0.696,0.0356 9.79077,2.043763 23.451949,4.338028 51.501986,3.833466 0.27548,-0.005 1.09932,-0.110485 1.09932,-0.110485 0,0 -0.53047,0.710274 -0.88387,0.98332 C 92.730043,99.980305 70.410364,123.35173 63.050024,132.8087 Z" id="path5"/>
    <path style="display:inline;opacity:1;fill:#1b4399;fill-opacity:1;stroke-opacity:0" d="m 211.71918,44.966025 c -0.007,-1.108943 -0.009,-1.16049 -0.009,-1.16049 0,0 -1.09063,-0.0041 -2.02372,0.717663 -18.26729,14.129731 -45.08396,29.844765 -87.13177,32.242961 -0.35622,0.02032 -0.7921,0.116086 -1.37282,0.528109 -37.586541,26.667242 -35.590927,22.143915 -58.805647,55.889562 -0.0682,0.0991 -0.232021,0.60766 -0.232021,0.60766 0,0 0.787099,3.04119 1.593239,4.68721 2.162209,4.41492 3.408594,6.40038 5.367449,10.05508 39.25114,73.23216 118.01677,113.14171 134.86788,122.58636 1.24269,0.6965 2.35199,1.27283 3.76913,1.9087 1.54,0.69101 1.73236,0.77921 2.69203,1.18241 0.45014,0.18912 1.28516,0.5664 1.28516,0.5664 0,0 0.0115,-0.81396 0.0117,-0.9375 0.0851,-50.46032 0.20425,-170.60702 -0.012,-228.874125 0,-8.4e-5 2.5e-4,0 2.5e-4,0 z" id="path6"/>
  </g>
  <g id="g1" style="display:inline;opacity:1">
  </g>
</svg>
